CalSansUI-Light.ufo
<glyph name="c" format="2">
  <advance width="515"/>
  <unicode hex="0063"/>
  <anchor x="292" y="0" name="bottom"/>
  <anchor x="369" y="0" name="ogonek"/>
  <anchor x="292" y="490" name="top"/>
  <outline>
    <contour>
      <point x="286" y="-13" type="curve" smooth="yes"/>
      <point x="370" y="-13"/>
      <point x="438" y="20"/>
      <point x="485" y="80" type="curve"/>
      <point x="429" y="128" type="line"/>
      <point x="395" y="82"/>
      <point x="353" y="61"/>
      <point x="290" y="61" type="curve" smooth="yes"/>
      <point x="187" y="61"/>
      <point x="116" y="140"/>
      <point x="116" y="245" type="curve" smooth="yes"/>
      <point x="116" y="348"/>
      <point x="183" y="428"/>
      <point x="286" y="428" type="curve" smooth="yes"/>
      <point x="348" y="428"/>
      <point x="389" y="406"/>
      <point x="428" y="359" type="curve"/>
      <point x="486" y="405" type="line"/>
      <point x="438" y="469"/>
      <point x="368" y="503"/>
      <point x="283" y="502" type="curve" smooth="yes"/>
      <point x="139" y="500"/>
      <point x="36" y="384"/>
      <point x="36" y="245" type="curve" smooth="yes"/>
      <point x="36" y="105"/>
      <point x="141" y="-13"/>
    </contour>
  </outline>
</glyph>
<glyph name="d" format="2">
  <advance width="600"/>
  <unicode hex="0064"/>
  <anchor x="468" y="586" name="bar"/>
  <anchor x="274" y="0" name="bottom"/>
  <anchor x="279" y="245" name="center"/>
  <anchor x="275" y="468" name="top"/>
  <anchor x="600" y="700" name="topright"/>
  <outline>
    <contour>
      <point x="271" y="-13" type="curve" smooth="yes"/>
      <point x="357" y="-13"/>
      <point x="414" y="32"/>
      <point x="446" y="94" type="curve"/>
      <point x="452" y="94" type="line"/>
      <point x="452" y="0" type="line"/>
      <point x="528" y="0" type="line"/>
      <point x="528" y="700" type="line"/>
      <point x="448" y="700" type="line"/>
      <point x="448" y="399" type="line"/>
      <point x="441" y="399" type="line"/>
      <point x="412" y="457"/>
      <point x="352" y="503"/>
      <point x="271" y="503" type="curve" smooth="yes"/>
      <point x="128" y="503"/>
      <point x="26" y="397"/>
      <point x="26" y="244" type="curve" smooth="yes"/>
      <point x="26" y="92"/>
      <point x="128" y="-13"/>
    </contour>
    <contour>
      <point x="279" y="61" type="curve" smooth="yes"/>
      <point x="169" y="61"/>
      <point x="106" y="140"/>
      <point x="106" y="245" type="curve" smooth="yes"/>
      <point x="106" y="353"/>
      <point x="169" y="429"/>
      <point x="279" y="429" type="curve" smooth="yes"/>
      <point x="383" y="429"/>
      <point x="449" y="350"/>
      <point x="449" y="244" type="curve" smooth="yes"/>
      <point x="449" y="142"/>
      <point x="383" y="61"/>
    </contour>
  </outline>
</glyph>
<glyph name="f" format="2">
  <advance width="386"/>
  <unicode hex="0066"/>
  <anchor x="155" y="0" name="bottom"/>
  <anchor x="242" y="700" name="top"/>
  <outline>
    <contour>
      <point x="117" y="0" type="line"/>
      <point x="197" y="0" type="line"/>
      <point x="197" y="544" type="line" smooth="yes"/>
      <point x="197" y="601"/>
      <point x="228" y="640"/>
      <point x="297" y="640" type="curve" smooth="yes"/>
      <point x="325" y="640"/>
      <point x="347" y="639"/>
      <point x="369" y="632" type="curve"/>
      <point x="369" y="703" type="line"/>
      <point x="337" y="711"/>
      <point x="320" y="713"/>
      <point x="285" y="713" type="curve" smooth="yes"/>
      <point x="187" y="713"/>
      <point x="117" y="647"/>
      <point x="117" y="549" type="curve" smooth="yes"/>
    </contour>
    <contour>
      <point x="17" y="418" type="line"/>
      <point x="369" y="418" type="line"/>
      <point x="369" y="490" type="line"/>
      <point x="17" y="490" type="line"/>
    </contour>
  </outline>
</glyph>
<glyph name="micro" format="2">
  <advance width="555"/>
  <unicode hex="00B5"/>
  <anchor x="267" y="0" name="bottom"/>
  <anchor x="405" y="0" name="ogonek"/>
  <anchor x="277" y="490" name="top"/>
  <anchor x="483" y="490" name="topright"/>
  <outline>
    <contour>
      <point x="155" y="28" type="line"/>
      <point x="182" y="1"/>
      <point x="219" y="-13"/>
      <point x="261" y="-13" type="curve" smooth="yes"/>
      <point x="329" y="-13"/>
      <point x="374" y="27"/>
      <point x="401" y="74" type="curve"/>
      <point x="407" y="74" type="line"/>
      <point x="407" y="0" type="line"/>
      <point x="483" y="0" type="line"/>
      <point x="483" y="490" type="line"/>
      <point x="403" y="490" type="line"/>
      <point x="403" y="194" type="line" smooth="yes"/>
      <point x="403" y="112"/>
      <point x="347" y="61"/>
      <point x="265" y="61" type="curve" smooth="yes"/>
      <point x="198" y="61"/>
      <point x="152" y="112"/>
      <point x="152" y="194" type="curve" smooth="yes"/>
      <point x="152" y="490" type="line"/>
      <point x="72" y="490" type="line"/>
      <point x="72" y="-220" type="line"/>
      <point x="152" y="-220" type="line"/>
      <point x="152" y="28" type="line"/>
    </contour>
  </outline>
</glyph>
<glyph name="paragraph" format="2">
  <advance width="590"/>
  <unicode hex="00B6"/>
  <outline>
    <contour>
      <point x="288" y="0" type="line"/>
      <point x="353" y="0" type="line"/>
      <point x="353" y="636" type="line"/>
      <point x="443" y="636" type="line"/>
      <point x="443" y="0" type="line"/>
      <point x="508" y="0" type="line"/>
      <point x="508" y="700" type="line"/>
      <point x="258" y="700" type="line" smooth="yes"/>
      <point x="124" y="700"/>
      <point x="42" y="636"/>
      <point x="42" y="510" type="curve" smooth="yes"/>
      <point x="42" y="384"/>
      <point x="124" y="318"/>
      <point x="258" y="318" type="curve" smooth="yes"/>
      <point x="288" y="318" type="line"/>
    </contour>
  </outline>
</glyph>
<glyph name="multiply" format="2">
  <advance width="596"/>
  <unicode hex="00D7"/>
  <outline>
    <contour>
      <point x="442" y="87" type="line"/>
      <point x="489" y="135" type="line"/>
      <point x="152" y="473" type="line"/>
      <point x="105" y="425" type="line"/>
    </contour>
    <contour>
      <point x="152" y="87" type="line"/>
      <point x="489" y="425" type="line"/>
      <point x="442" y="473" type="line"/>
      <point x="105" y="135" type="line"/>
    </contour>
  </outline>
</glyph>
<glyph name="Thorn" format="2">
  <advance width="576"/>
  <unicode hex="00DE"/>
  <anchor x="300" y="0" name="bottom"/>
  <anchor x="300" y="700" name="top"/>
  <outline>
    <contour>
      <point x="82" y="0" type="line"/>
      <point x="164" y="0" type="line"/>
      <point x="164" y="150" type="line"/>
      <point x="306" y="150" type="line" smooth="yes"/>
      <point x="433" y="150"/>
      <point x="534" y="216"/>
      <point x="534" y="353" type="curve" smooth="yes"/>
      <point x="534" y="489"/>
      <point x="432" y="553"/>
      <point x="306" y="553" type="curve" smooth="yes"/>
      <point x="164" y="553" type="line"/>
      <point x="164" y="700" type="line"/>
      <point x="82" y="700" type="line"/>
    </contour>
    <contour>
      <point x="164" y="226" type="line"/>
      <point x="164" y="477" type="line"/>
      <point x="298" y="477" type="line" smooth="yes"/>
      <point x="388" y="477"/>
      <point x="449" y="445"/>
      <point x="449" y="353" type="curve" smooth="yes"/>
      <point x="449" y="259"/>
      <point x="388" y="226"/>
      <point x="298" y="226" type="curve" smooth="yes"/>
    </contour>
  </outline>
</glyph>
<glyph name="kgreenlandic" format="2">
  <advance width="525"/>
  <unicode hex="0138"/>
  <outline>
    <contour>
      <point x="72" y="0" type="line"/>
      <point x="154" y="0" type="line"/>
      <point x="154" y="254" type="line"/>
      <point x="157" y="254" type="line"/>
      <point x="387" y="0" type="line"/>
      <point x="498" y="0" type="line"/>
      <point x="246" y="273" type="line"/>
      <point x="484" y="490" type="line"/>
      <point x="368" y="490" type="line"/>
      <point x="157" y="284" type="line"/>
      <point x="154" y="284" type="line"/>
      <point x="154" y="490" type="line"/>
      <point x="72" y="490" type="line"/>
    </contour>
  </outline>
</glyph>
<glyph name="Schwa" format="2">
  <advance width="774"/>
  <unicode hex="018F"/>
  <outline>
    <contour>
      <point x="378" y="-13" type="curve" smooth="yes"/>
      <point x="583" y="-13"/>
      <point x="733" y="144"/>
      <point x="733" y="349" type="curve" smooth="yes"/>
      <point x="733" y="555"/>
      <point x="587" y="713"/>
      <point x="378" y="713" type="curve" smooth="yes"/>
      <point x="258" y="713"/>
      <point x="161" y="663"/>
      <point x="91" y="563" type="curve"/>
      <point x="156" y="520" type="line"/>
      <point x="204" y="595"/>
      <point x="280" y="637"/>
      <point x="377" y="637" type="curve" smooth="yes"/>
      <point x="544" y="637"/>
      <point x="646" y="511"/>
      <point x="646" y="349" type="curve" smooth="yes"/>
      <point x="646" y="187"/>
      <point x="535" y="63"/>
      <point x="377" y="63" type="curve" smooth="yes"/>
      <point x="225" y="63"/>
      <point x="126" y="167"/>
      <point x="124" y="318" type="curve"/>
      <point x="91" y="296" type="line"/>
      <point x="670" y="295" type="line"/>
      <point x="670" y="367" type="line"/>
      <point x="44" y="367" type="line"/>
      <point x="42" y="355"/>
      <point x="41" y="338"/>
      <point x="41" y="321" type="curve" smooth="yes"/>
      <point x="41" y="126"/>
      <point x="179" y="-13"/>
    </contour>
  </outline>
</glyph>
<glyph name="Fhook" format="2">
  <advance width="550"/>
  <unicode hex="0191"/>
  <anchor x="127" y="0" name="bottom"/>
  <anchor x="107" y="0" name="ogonek"/>
  <anchor x="298" y="700" name="top"/>
  <outline>
    <contour>
      <point x="-13" y="-233" type="curve" smooth="yes"/>
      <point x="100" y="-230"/>
      <point x="169" y="-161"/>
      <point x="169" y="-35" type="curve" smooth="yes"/>
      <point x="169" y="0" type="line"/>
      <point x="130" y="107" type="line"/>
      <point x="85" y="0" type="line"/>
      <point x="85" y="-32" type="line" smooth="yes"/>
      <point x="85" y="-109"/>
      <point x="45" y="-152"/>
      <point x="-16" y="-152" type="curve" smooth="yes"/>
      <point x="-49" y="-152"/>
      <point x="-77" y="-144"/>
      <point x="-99" y="-118" type="curve"/>
      <point x="-156" y="-186" type="line"/>
      <point x="-119" y="-223"/>
      <point x="-70" y="-234"/>
    </contour>
    <component base="F" xOffset="3"/>
  </outline>
</glyph>
<glyph name="verticallinemod" format="2">
  <advance width="224"/>
  <unicode hex="02C8"/>
  <outline>
    <contour>
      <point x="72" y="420" type="line"/>
      <point x="152" y="420" type="line"/>
      <point x="152" y="740" type="line"/>
      <point x="72" y="740" type="line"/>
      <point x="72" y="481" type="line"/>
    </contour>
  </outline>
</glyph>
<glyph name="cedillacomb" format="2">
  <unicode hex="0327"/>
  <anchor x="5" y="6" name="_bottom"/>
  <anchor x="61" y="-200" name="bottom"/>
  <outline>
    <contour>
      <point x="-16" y="-221" type="curve" smooth="yes"/>
      <point x="46" y="-221"/>
      <point x="92" y="-184"/>
      <point x="92" y="-128" type="curve" smooth="yes"/>
      <point x="92" y="-81"/>
      <point x="57" y="-49"/>
      <point x="12" y="-49" type="curve"/>
      <point x="11" y="-73" type="line"/>
      <point x="46" y="6" type="line"/>
      <point x="1" y="18" type="line"/>
      <point x="-46" y="-88" type="line"/>
      <point x="-43" y="-91" type="line"/>
      <point x="-36" y="-89"/>
      <point x="-28" y="-88"/>
      <point x="-18" y="-88" type="curve" smooth="yes"/>
      <point x="12" y="-88"/>
      <point x="34" y="-101"/>
      <point x="34" y="-126" type="curve" smooth="yes"/>
      <point x="34" y="-147"/>
      <point x="20" y="-166"/>
      <point x="-16" y="-166" type="curve" smooth="yes"/>
      <point x="-39" y="-166"/>
      <point x="-59" y="-157"/>
      <point x="-75" y="-139" type="curve"/>
      <point x="-107" y="-184" type="line"/>
      <point x="-84" y="-208"/>
      <point x="-53" y="-221"/>
    </contour>
  </outline>
</glyph>
<glyph name="brevebelowcomb" format="2">
  <unicode hex="032E"/>
  <anchor x="0" y="0" name="_bottom"/>
  <outline>
    <contour>
      <point x="0" y="-220" type="curve" smooth="yes"/>
      <point x="80" y="-220"/>
      <point x="135" y="-158"/>
      <point x="135" y="-77" type="curve"/>
      <point x="72" y="-77" type="line"/>
      <point x="74" y="-121"/>
      <point x="53" y="-169"/>
      <point x="0" y="-169" type="curve" smooth="yes"/>
      <point x="-50" y="-169"/>
      <point x="-74" y="-121"/>
      <point x="-72" y="-77" type="curve"/>
      <point x="-135" y="-77" type="line"/>
      <point x="-135" y="-158"/>
      <point x="-80" y="-220"/>
    </contour>
  </outline>
</glyph>
<glyph name="perthousand" format="2">
  <advance width="1066"/>
  <unicode hex="2030"/>
  <outline>
    <contour>
      <point x="87" y="0" type="line"/>
      <point x="147" y="0" type="line"/>
      <point x="644" y="700" type="line"/>
      <point x="585" y="700" type="line"/>
    </contour>
    <contour>
      <point x="200" y="401" type="curve" smooth="yes"/>
      <point x="288" y="401"/>
      <point x="356" y="472"/>
      <point x="356" y="553" type="curve" smooth="yes"/>
      <point x="356" y="634"/>
      <point x="289" y="708"/>
      <point x="200" y="708" type="curve" smooth="yes"/>
      <point x="112" y="708"/>
      <point x="45" y="635"/>
      <point x="45" y="553" type="curve" smooth="yes"/>
      <point x="45" y="472"/>
      <point x="112" y="401"/>
    </contour>
    <contour>
      <point x="200" y="450" type="curve" smooth="yes"/>
      <point x="141" y="450"/>
      <point x="101" y="496"/>
      <point x="101" y="552" type="curve" smooth="yes"/>
      <point x="101" y="612"/>
      <point x="141" y="658"/>
      <point x="200" y="658" type="curve" smooth="yes"/>
      <point x="260" y="658"/>
      <point x="300" y="612"/>
      <point x="300" y="552" type="curve" smooth="yes"/>
      <point x="301" y="494"/>
      <point x="262" y="450"/>
    </contour>
    <contour>
      <point x="540" y="-6" type="curve" smooth="yes"/>
      <point x="628" y="-6"/>
      <point x="696" y="65"/>
      <point x="696" y="146" type="curve" smooth="yes"/>
      <point x="696" y="227"/>
      <point x="629" y="301"/>
      <point x="540" y="301" type="curve" smooth="yes"/>
      <point x="452" y="301"/>
      <point x="385" y="228"/>
      <point x="385" y="146" type="curve" smooth="yes"/>
      <point x="385" y="65"/>
      <point x="452" y="-6"/>
    </contour>
    <contour>
      <point x="540" y="43" type="curve" smooth="yes"/>
      <point x="481" y="43"/>
      <point x="441" y="89"/>
      <point x="441" y="145" type="curve" smooth="yes"/>
      <point x="441" y="205"/>
      <point x="481" y="251"/>
      <point x="540" y="251" type="curve" smooth="yes"/>
      <point x="600" y="251"/>
      <point x="640" y="205"/>
      <point x="640" y="145" type="curve" smooth="yes"/>
      <point x="641" y="87"/>
      <point x="602" y="43"/>
    </contour>
    <contour>
      <point x="890" y="-8" type="curve" smooth="yes"/>
      <point x="978" y="-8"/>
      <point x="1046" y="63"/>
      <point x="1046" y="144" type="curve" smooth="yes"/>
      <point x="1046" y="225"/>
      <point x="979" y="299"/>
      <point x="890" y="299" type="curve" smooth="yes"/>
      <point x="802" y="299"/>
      <point x="735" y="226"/>
      <point x="735" y="144" type="curve" smooth="yes"/>
      <point x="735" y="63"/>
      <point x="802" y="-8"/>
    </contour>
    <contour>
      <point x="890" y="41" type="curve" smooth="yes"/>
      <point x="831" y="41"/>
      <point x="791" y="87"/>
      <point x="791" y="143" type="curve" smooth="yes"/>
      <point x="791" y="203"/>
      <point x="831" y="249"/>
      <point x="890" y="249" type="curve" smooth="yes"/>
      <point x="950" y="249"/>
      <point x="990" y="203"/>
      <point x="990" y="143" type="curve" smooth="yes"/>
      <point x="991" y="85"/>
      <point x="952" y="41"/>
    </contour>
  </outline>
</glyph>
<glyph name="guarani" format="2">
  <advance width="657"/>
  <unicode hex="20B2"/>
  <anchor x="378" y="653" name="_TopCurrency"/>
  <outline>
    <contour>
      <point x="368" y="31" type="curve" smooth="yes"/>
      <point x="474" y="31"/>
      <point x="558" y="69"/>
      <point x="624" y="133" type="curve"/>
      <point x="624" y="371" type="line"/>
      <point x="336" y="371" type="line"/>
      <point x="336" y="303" type="line"/>
      <point x="583" y="303" type="line"/>
      <point x="548" y="326" type="line"/>
      <point x="548" y="118" type="line"/>
      <point x="570" y="182" type="line"/>
      <point x="512" y="129"/>
      <point x="456" y="104"/>
      <point x="369" y="104" type="curve" smooth="yes"/>
      <point x="232" y="104"/>
      <point x="133" y="205"/>
      <point x="133" y="354" type="curve" smooth="yes"/>
      <point x="133" y="504"/>
      <point x="232" y="606"/>
      <point x="369" y="606" type="curve" smooth="yes"/>
      <point x="447" y="606"/>
      <point x="519" y="572"/>
      <point x="554" y="530" type="curve"/>
      <point x="612" y="578" type="line"/>
      <point x="552" y="647"/>
      <point x="470" y="679"/>
      <point x="368" y="679" type="curve" smooth="yes"/>
      <point x="189" y="679"/>
      <point x="51" y="544"/>
      <point x="51" y="354" type="curve" smooth="yes"/>
      <point x="51" y="165"/>
      <point x="193" y="31"/>
    </contour>
    <component base="verticalTopCurrencycomb" xOffset="378"/>
    <component base="verticalBottomCurrencycomb" xOffset="378"/>
  </outline>
</glyph>
<glyph name="hryvnia" format="2">
  <advance width="594"/>
  <unicode hex="20B4"/>
  <outline>
    <contour>
      <point x="315" y="27" type="curve" smooth="yes"/>
      <point x="420" y="27"/>
      <point x="507" y="67"/>
      <point x="561" y="152" type="curve"/>
      <point x="493" y="198" type="line"/>
      <point x="448" y="126"/>
      <point x="388" y="103"/>
      <point x="309" y="103" type="curve" smooth="yes"/>
      <point x="236" y="103"/>
      <point x="169" y="142"/>
      <point x="169" y="214" type="curve" smooth="yes"/>
      <point x="169" y="242"/>
      <point x="179" y="262"/>
      <point x="217" y="277" type="curve"/>
      <point x="93" y="277" type="line"/>
      <point x="87" y="260"/>
      <point x="84" y="241"/>
      <point x="84" y="219" type="curve" smooth="yes"/>
      <point x="84" y="103"/>
      <point x="184" y="27"/>
    </contour>
    <contour>
      <point x="21" y="253" type="line"/>
      <point x="572" y="253" type="line"/>
      <point x="572" y="325" type="line"/>
      <point x="21" y="325" type="line"/>
    </contour>
    <contour>
      <point x="21" y="375" type="line"/>
      <point x="572" y="375" type="line"/>
      <point x="572" y="447" type="line"/>
      <point x="21" y="447" type="line"/>
    </contour>
    <contour>
      <point x="379" y="419" type="curve"/>
      <point x="505" y="419" type="line"/>
      <point x="516" y="439"/>
      <point x="523" y="464"/>
      <point x="523" y="495" type="curve" smooth="yes"/>
      <point x="523" y="579"/>
      <point x="442" y="673"/>
      <point x="303" y="673" type="curve" smooth="yes"/>
      <point x="202" y="673"/>
      <point x="134" y="634"/>
      <point x="89" y="564" type="curve"/>
      <point x="157" y="520" type="line"/>
      <point x="193" y="578"/>
      <point x="244" y="598"/>
      <point x="304" y="598" type="curve" smooth="yes"/>
      <point x="391" y="598"/>
      <point x="439" y="552"/>
      <point x="439" y="500" type="curve" smooth="yes"/>
      <point x="439" y="458"/>
      <point x="415" y="434"/>
    </contour>
  </outline>
</glyph>
<glyph name="cedi" format="2">
  <advance width="652"/>
  <unicode hex="20B5"/>
  <outline>
    <contour>
      <point x="369" y="27" type="curve" smooth="yes"/>
      <point x="483" y="27"/>
      <point x="571" y="69"/>
      <point x="631" y="142" type="curve"/>
      <point x="571" y="191" type="line"/>
      <point x="520" y="133"/>
      <point x="462" y="103"/>
      <point x="372" y="103" type="curve" smooth="yes"/>
      <point x="251" y="103"/>
      <point x="128" y="182"/>
      <point x="128" y="349" type="curve" smooth="yes"/>
      <point x="128" y="515"/>
      <point x="241" y="597"/>
      <point x="369" y="597" type="curve" smooth="yes"/>
      <point x="445" y="597"/>
      <point x="513" y="575"/>
      <point x="564" y="511" type="curve"/>
      <point x="625" y="563" type="line"/>
      <point x="562" y="638"/>
      <point x="476" y="673"/>
      <point x="369" y="673" type="curve" smooth="yes"/>
      <point x="195" y="673"/>
      <point x="41" y="553"/>
      <point x="41" y="349" type="curve" smooth="yes"/>
      <point x="41" y="145"/>
      <point x="197" y="27"/>
    </contour>
    <contour>
      <point x="341" y="-69" type="line"/>
      <point x="413" y="-69" type="line"/>
      <point x="413" y="775" type="line"/>
      <point x="341" y="775" type="line"/>
    </contour>
  </outline>
</glyph>
<glyph name="manat" format="2">
  <advance width="507"/>
  <unicode hex="20BC"/>
  <outline>
    <contour>
      <point x="50" y="30" type="line"/>
      <point x="129" y="30" type="line"/>
      <point x="129" y="205" type="line" smooth="yes"/>
      <point x="129" y="300"/>
      <point x="172" y="349"/>
      <point x="253" y="349" type="curve" smooth="yes"/>
      <point x="334" y="349"/>
      <point x="377" y="300"/>
      <point x="377" y="205" type="curve" smooth="yes"/>
      <point x="377" y="30" type="line"/>
      <point x="457" y="30" type="line"/>
      <point x="457" y="205" type="line" smooth="yes"/>
      <point x="457" y="345"/>
      <point x="378" y="422"/>
      <point x="253" y="422" type="curve" smooth="yes"/>
      <point x="128" y="422"/>
      <point x="50" y="345"/>
      <point x="50" y="205" type="curve" smooth="yes"/>
    </contour>
    <contour>
      <point x="219" y="30" type="line"/>
      <point x="291" y="30" type="line"/>
      <point x="291" y="490" type="line"/>
      <point x="219" y="490" type="line"/>
    </contour>
  </outline>
</glyph>
<glyph name="partialdiff" format="2">
  <advance width="623"/>
  <unicode hex="2202"/>
  <outline>
    <contour>
      <point x="289" y="-13" type="curve" smooth="yes"/>
      <point x="443" y="-13"/>
      <point x="549" y="89"/>
      <point x="549" y="281" type="curve" smooth="yes"/>
      <point x="549" y="339"/>
      <point x="532" y="403"/>
      <point x="502" y="464" type="curve" smooth="yes"/>
      <point x="445" y="585"/>
      <point x="354" y="666"/>
      <point x="230" y="756" type="curve"/>
      <point x="169" y="687" type="line"/>
      <point x="306" y="597"/>
      <point x="403" y="491"/>
      <point x="449" y="392" type="curve"/>
      <point x="449" y="385" type="line"/>
      <point x="463" y="345"/>
      <point x="471" y="303"/>
      <point x="471" y="260" type="curve" smooth="yes"/>
      <point x="471" y="153"/>
      <point x="407" y="60"/>
      <point x="288" y="60" type="curve" smooth="yes"/>
      <point x="178" y="60"/>
      <point x="114" y="145"/>
      <point x="114" y="242" type="curve" smooth="yes"/>
      <point x="114" y="341"/>
      <point x="191" y="415"/>
      <point x="285" y="415" type="curve" smooth="yes"/>
      <point x="378" y="415"/>
      <point x="420" y="382"/>
      <point x="499" y="291" type="curve"/>
      <point x="496" y="367" type="line"/>
      <point x="448" y="436"/>
      <point x="389" y="488"/>
      <point x="276" y="488" type="curve" smooth="yes"/>
      <point x="155" y="488"/>
      <point x="36" y="393"/>
      <point x="36" y="241" type="curve" smooth="yes"/>
      <point x="36" y="101"/>
      <point x="134" y="-13"/>
    </contour>
  </outline>
</glyph>
<glyph name="product" format="2">
  <advance width="672"/>
  <unicode hex="220F"/>
  <outline>
    <contour>
      <point x="456" y="-220" type="line"/>
      <point x="516" y="-220" type="line"/>
      <point x="516" y="700" type="line"/>
      <point x="456" y="700" type="line"/>
    </contour>
    <contour>
      <point x="156" y="-220" type="line"/>
      <point x="216" y="-220" type="line"/>
      <point x="216" y="700" type="line"/>
      <point x="156" y="700" type="line"/>
    </contour>
    <contour>
      <point x="47" y="642" type="line"/>
      <point x="625" y="642" type="line"/>
      <point x="625" y="700" type="line"/>
      <point x="47" y="700" type="line"/>
    </contour>
  </outline>
</glyph>
<glyph name="radical" format="2">
  <advance width="604"/>
  <unicode hex="221A"/>
  <outline>
    <contour>
      <point x="159" y="-220" type="line"/>
      <point x="229" y="-220" type="line"/>
      <point x="414" y="642" type="line"/>
      <point x="565" y="642" type="line"/>
      <point x="565" y="700" type="line"/>
      <point x="357" y="700" type="line"/>
      <point x="215" y="-17" type="line" smooth="yes"/>
      <point x="206" y="-64"/>
      <point x="198" y="-113"/>
      <point x="194" y="-160" type="curve"/>
      <point x="192" y="-160" type="line"/>
      <point x="188" y="-111"/>
      <point x="177" y="-65"/>
      <point x="166" y="-16" type="curve" smooth="yes"/>
      <point x="121" y="176" type="line"/>
      <point x="55" y="176" type="line"/>
    </contour>
  </outline>
</glyph>
<glyph name="notequal" format="2">
  <advance width="596"/>
  <unicode hex="2260"/>
  <outline>
    <contour>
      <point x="189" y="216" type="line"/>
      <point x="279" y="216" type="line"/>
      <point x="426" y="443" type="line"/>
      <point x="336" y="443" type="line"/>
    </contour>
    <contour>
      <point x="100" y="70" type="line"/>
      <point x="193" y="70" type="line"/>
      <point x="283" y="216" type="line"/>
      <point x="191" y="216" type="line"/>
    </contour>
    <contour>
      <point x="332" y="443" type="line"/>
      <point x="424" y="443" type="line"/>
      <point x="497" y="561" type="line"/>
      <point x="405" y="561" type="line"/>
    </contour>
    <component base="equal"/>
  </outline>
</glyph>
<glyph name="heartBlackSuit" format="2">
  <advance width="832"/>
  <unicode hex="2665"/>
  <outline>
    <contour>
      <point x="416" y="-13" type="curve"/>
      <point x="416" y="-13"/>
      <point x="827" y="206"/>
      <point x="827" y="508" type="curve" smooth="yes"/>
      <point x="827" y="622"/>
      <point x="735" y="713"/>
      <point x="622" y="713" type="curve" smooth="yes"/>
      <point x="524" y="713"/>
      <point x="431" y="630"/>
      <point x="419" y="531" type="curve"/>
      <point x="413" y="531" type="line"/>
      <point x="405" y="630"/>
      <point x="313" y="713"/>
      <point x="210" y="713" type="curve" smooth="yes"/>
      <point x="96" y="713"/>
      <point x="5" y="622"/>
      <point x="5" y="508" type="curve" smooth="yes"/>
      <point x="5" y="206"/>
      <point x="416" y="-13"/>
    </contour>
  </outline>
</glyph>
<glyph name="saltillo" format="2">
  <advance width="244"/>
  <unicode hex="A78C"/>
  <outline>
    <contour>
      <point x="100" y="263" type="line"/>
      <point x="144" y="263" type="line"/>
      <point x="167" y="577" type="line"/>
      <point x="167" y="700" type="line"/>
      <point x="77" y="700" type="line"/>
      <point x="77" y="577" type="line"/>
    </contour>
  </outline>
</glyph>
<glyph name="Eng.ss10" format="2">
  <advance width="755"/>
  <anchor x="385" y="0" name="bottom"/>
  <anchor x="666" y="0" name="ogonek"/>
  <anchor x="376" y="700" name="top"/>
  <outline>
    <contour>
      <point x="592" y="65" type="line"/>
      <point x="592" y="-220" type="line"/>
      <point x="673" y="-220" type="line"/>
      <point x="673" y="0" type="line"/>
    </contour>
    <component base="N"/>
  </outline>
</glyph>
<glyph name="ae.ss01" format="2">
  <advance width="980"/>
  <anchor x="503" y="0" name="bottom"/>
  <anchor x="460" y="0" name="ogonek"/>
  <anchor x="503" y="490" name="top"/>
  <outline>
    <contour>
      <point x="709" y="-13" type="curve" smooth="yes"/>
      <point x="797" y="-13"/>
      <point x="870" y="19"/>
      <point x="916" y="80" type="curve"/>
      <point x="859" y="129" type="line"/>
      <point x="824" y="81"/>
      <point x="778" y="61"/>
      <point x="710" y="61" type="curve" smooth="yes"/>
      <point x="631" y="61"/>
      <point x="541" y="129"/>
      <point x="539" y="233" type="curve"/>
      <point x="539" y="245" type="line"/>
      <point x="538" y="362"/>
      <point x="631" y="429"/>
      <point x="706" y="429" type="curve" smooth="yes"/>
      <point x="812" y="429"/>
      <point x="868" y="352"/>
      <point x="864" y="245" type="curve"/>
      <point x="892" y="284" type="line"/>
      <point x="498" y="284" type="line"/>
      <point x="498" y="214" type="line"/>
      <point x="942" y="214" type="line"/>
      <point x="944" y="223"/>
      <point x="944" y="236"/>
      <point x="944" y="246" type="curve" smooth="yes"/>
      <point x="944" y="397"/>
      <point x="855" y="503"/>
      <point x="708" y="503" type="curve" smooth="yes"/>
      <point x="591" y="503"/>
      <point x="507" y="392"/>
      <point x="507" y="246" type="curve" smooth="yes"/>
      <point x="507" y="96"/>
      <point x="589" y="-13"/>
    </contour>
    <contour>
      <point x="480" y="399" type="line"/>
      <point x="480" y="94" type="line"/>
      <point x="551" y="94" type="line"/>
      <point x="523" y="251" type="line"/>
      <point x="551" y="399" type="line"/>
    </contour>
    <component base="a.ss01"/>
  </outline>
</glyph>
<glyph name="ast" format="2">
  <advance width="140"/>
  <outline>
    <contour>
      <point x="69" y="535" type="line"/>
      <point x="90" y="545" type="line"/>
      <point x="103" y="697" type="line"/>
      <point x="35" y="697" type="line"/>
      <point x="48" y="545" type="line"/>
    </contour>
  </outline>
</glyph>
<glyph name="brevecomb.case" format="2">
  <anchor x="0" y="700" name="_top"/>
  <anchor x="1" y="807" name="top"/>
  <outline>
    <contour>
      <point x="0" y="737" type="curve" smooth="yes"/>
      <point x="80" y="737"/>
      <point x="135" y="783"/>
      <point x="135" y="859" type="curve"/>
      <point x="72" y="859" type="line"/>
      <point x="74" y="823"/>
      <point x="53" y="792"/>
      <point x="0" y="792" type="curve" smooth="yes"/>
      <point x="-50" y="792"/>
      <point x="-74" y="823"/>
      <point x="-72" y="859" type="curve"/>
      <point x="-135" y="859" type="line"/>
      <point x="-135" y="783"/>
      <point x="-80" y="737"/>
    </contour>
  </outline>
</glyph>
<glyph name="breveinvertedcomb.case" format="2">
  <anchor x="0" y="700" name="_top"/>
  <anchor x="1" y="837" name="top"/>
  <outline>
    <contour>
      <point x="-135" y="743" type="curve"/>
      <point x="-72" y="743" type="line"/>
      <point x="-74" y="779"/>
      <point x="-53" y="810"/>
      <point x="0" y="810" type="curve" smooth="yes"/>
      <point x="50" y="810"/>
      <point x="74" y="779"/>
      <point x="72" y="743" type="curve"/>
      <point x="135" y="743" type="line"/>
      <point x="135" y="819"/>
      <point x="80" y="865"/>
      <point x="0" y="865" type="curve" smooth="yes"/>
      <point x="-80" y="865"/>
      <point x="-135" y="819"/>
    </contour>
  </outline>
</glyph>
<glyph name="c.ss10" format="2">
  <advance width="423"/>
  <anchor x="276" y="0" name="bottom"/>
  <anchor x="369" y="0" name="ogonek"/>
  <anchor x="276" y="490" name="top"/>
  <outline>
    <contour>
      <point x="299" y="-13" type="curve" smooth="yes"/>
      <point x="322" y="-13"/>
      <point x="353" y="-7"/>
      <point x="396" y="8" type="curve"/>
      <point x="403" y="93" type="line"/>
      <point x="361" y="71"/>
      <point x="331" y="65"/>
      <point x="303" y="65" type="curve" smooth="yes"/>
      <point x="188" y="65"/>
      <point x="116" y="140"/>
      <point x="116" y="245" type="curve" smooth="yes"/>
      <point x="116" y="348"/>
      <point x="184" y="424"/>
      <point x="299" y="424" type="curve" smooth="yes"/>
      <point x="336" y="424"/>
      <point x="361" y="421"/>
      <point x="401" y="401" type="curve"/>
      <point x="401" y="485" type="line"/>
      <point x="377" y="493"/>
      <point x="341" y="503"/>
      <point x="296" y="503" type="curve" smooth="yes"/>
      <point x="140" y="503"/>
      <point x="36" y="384"/>
      <point x="36" y="245" type="curve" smooth="yes"/>
      <point x="36" y="105"/>
      <point x="142" y="-13"/>
    </contour>
  </outline>
</glyph>
<glyph name="f_t.ss11" format="2">
  <advance width="650"/>
  <anchor x="369" y="0" name="caret_1"/>
  <outline>
    <contour>
      <point x="117" y="0" type="line"/>
      <point x="197" y="0" type="line"/>
      <point x="197" y="526" type="line" smooth="yes"/>
      <point x="197" y="595"/>
      <point x="243" y="639"/>
      <point x="315" y="639" type="curve" smooth="yes"/>
      <point x="387" y="639"/>
      <point x="432" y="595"/>
      <point x="432" y="526" type="curve" smooth="yes"/>
      <point x="432" y="0" type="line"/>
      <point x="512" y="0" type="line"/>
      <point x="512" y="526" type="line" smooth="yes"/>
      <point x="512" y="641"/>
      <point x="436" y="713"/>
      <point x="315" y="713" type="curve" smooth="yes"/>
      <point x="202" y="713"/>
      <point x="117" y="635"/>
      <point x="117" y="530" type="curve" smooth="yes"/>
    </contour>
    <contour>
      <point x="17" y="418" type="line"/>
      <point x="633" y="418" type="line"/>
      <point x="633" y="490" type="line"/>
      <point x="17" y="490" type="line"/>
    </contour>
  </outline>
</glyph>
